<mxfile host="app.diagrams.net" agent="Mozilla/5.0 (Windows NT 10.0; Win64; x64) AppleWebKit/537.36 (KHTML, like Gecko) Chrome/133.0.0.0 Safari/537.36 Edg/133.0.0.0" version="26.0.14">
  <diagram id="C5RBs43oDa-KdzZeNtuy" name="Page-1">
    <mxGraphModel dx="4043" dy="3259" grid="1" gridSize="10" guides="1" tooltips="1" connect="1" arrows="1" fold="1" page="1" pageScale="1" pageWidth="827" pageHeight="1169" math="0" shadow="0">
      <root>
        <mxCell id="WIyWlLk6GJQsqaUBKTNV-0" />
        <mxCell id="WIyWlLk6GJQsqaUBKTNV-1" parent="WIyWlLk6GJQsqaUBKTNV-0" />
        <mxCell id="nx4mN9wmy4ZOvfLZEnnc-68" style="edgeStyle=orthogonalEdgeStyle;rounded=0;orthogonalLoop=1;jettySize=auto;html=1;exitX=0.5;exitY=1;exitDx=0;exitDy=0;exitPerimeter=0;entryX=0.5;entryY=0;entryDx=0;entryDy=0;" edge="1" parent="WIyWlLk6GJQsqaUBKTNV-1" source="nx4mN9wmy4ZOvfLZEnnc-1" target="nx4mN9wmy4ZOvfLZEnnc-67">
          <mxGeometry relative="1" as="geometry" />
        </mxCell>
        <mxCell id="nx4mN9wmy4ZOvfLZEnnc-1" value="START" style="strokeWidth=2;html=1;shape=mxgraph.flowchart.start_2;whiteSpace=wrap;" vertex="1" parent="WIyWlLk6GJQsqaUBKTNV-1">
          <mxGeometry x="288" y="-5" width="100" height="100" as="geometry" />
        </mxCell>
        <mxCell id="nx4mN9wmy4ZOvfLZEnnc-2" value="EINDE" style="strokeWidth=2;html=1;shape=mxgraph.flowchart.start_2;whiteSpace=wrap;" vertex="1" parent="WIyWlLk6GJQsqaUBKTNV-1">
          <mxGeometry x="278" y="1071.5" width="100" height="100" as="geometry" />
        </mxCell>
        <mxCell id="nx4mN9wmy4ZOvfLZEnnc-49" style="edgeStyle=orthogonalEdgeStyle;rounded=0;orthogonalLoop=1;jettySize=auto;html=1;exitX=0.5;exitY=1;exitDx=0;exitDy=0;entryX=0.5;entryY=0;entryDx=0;entryDy=0;" edge="1" parent="WIyWlLk6GJQsqaUBKTNV-1" target="nx4mN9wmy4ZOvfLZEnnc-11">
          <mxGeometry relative="1" as="geometry">
            <mxPoint x="-130" y="645" as="sourcePoint" />
          </mxGeometry>
        </mxCell>
        <mxCell id="nx4mN9wmy4ZOvfLZEnnc-50" style="edgeStyle=orthogonalEdgeStyle;rounded=0;orthogonalLoop=1;jettySize=auto;html=1;exitX=0.5;exitY=1;exitDx=0;exitDy=0;entryX=0.5;entryY=0;entryDx=0;entryDy=0;" edge="1" parent="WIyWlLk6GJQsqaUBKTNV-1" target="nx4mN9wmy4ZOvfLZEnnc-14">
          <mxGeometry relative="1" as="geometry">
            <mxPoint x="-130" y="720" as="sourcePoint" />
          </mxGeometry>
        </mxCell>
        <mxCell id="nx4mN9wmy4ZOvfLZEnnc-51" style="edgeStyle=orthogonalEdgeStyle;rounded=0;orthogonalLoop=1;jettySize=auto;html=1;exitX=0.5;exitY=1;exitDx=0;exitDy=0;entryX=0.5;entryY=0;entryDx=0;entryDy=0;" edge="1" parent="WIyWlLk6GJQsqaUBKTNV-1" target="nx4mN9wmy4ZOvfLZEnnc-16">
          <mxGeometry relative="1" as="geometry">
            <mxPoint x="-130" y="790" as="sourcePoint" />
          </mxGeometry>
        </mxCell>
        <mxCell id="nx4mN9wmy4ZOvfLZEnnc-52" style="edgeStyle=orthogonalEdgeStyle;rounded=0;orthogonalLoop=1;jettySize=auto;html=1;exitX=1;exitY=0.5;exitDx=0;exitDy=0;entryX=0;entryY=0.5;entryDx=0;entryDy=0;" edge="1" parent="WIyWlLk6GJQsqaUBKTNV-1" target="nx4mN9wmy4ZOvfLZEnnc-20">
          <mxGeometry relative="1" as="geometry">
            <mxPoint x="-80" y="835" as="sourcePoint" />
          </mxGeometry>
        </mxCell>
        <mxCell id="nx4mN9wmy4ZOvfLZEnnc-18" value="READ&lt;div&gt;TEMPSENSOR DATA&lt;/div&gt;" style="rounded=1;whiteSpace=wrap;html=1;absoluteArcSize=1;arcSize=14;strokeWidth=2;" vertex="1" parent="WIyWlLk6GJQsqaUBKTNV-1">
          <mxGeometry x="288" y="695" width="100" height="50" as="geometry" />
        </mxCell>
        <mxCell id="nx4mN9wmy4ZOvfLZEnnc-26" value="is de&lt;div&gt;temp &amp;gt; 5°C&lt;/div&gt;" style="strokeWidth=2;html=1;shape=mxgraph.flowchart.decision;whiteSpace=wrap;" vertex="1" parent="WIyWlLk6GJQsqaUBKTNV-1">
          <mxGeometry x="88" y="779" width="100" height="100" as="geometry" />
        </mxCell>
        <mxCell id="nx4mN9wmy4ZOvfLZEnnc-107" value="" style="edgeStyle=orthogonalEdgeStyle;rounded=0;orthogonalLoop=1;jettySize=auto;html=1;fillColor=#f8cecc;strokeColor=#b85450;" edge="1" parent="WIyWlLk6GJQsqaUBKTNV-1" source="nx4mN9wmy4ZOvfLZEnnc-34" target="nx4mN9wmy4ZOvfLZEnnc-26">
          <mxGeometry relative="1" as="geometry" />
        </mxCell>
        <mxCell id="nx4mN9wmy4ZOvfLZEnnc-112" value="NEE" style="edgeLabel;html=1;align=center;verticalAlign=middle;resizable=0;points=[];fontColor=light-dark(#b85450, #ededed);" vertex="1" connectable="0" parent="nx4mN9wmy4ZOvfLZEnnc-107">
          <mxGeometry x="0.0905" y="4" relative="1" as="geometry">
            <mxPoint x="15" y="-4" as="offset" />
          </mxGeometry>
        </mxCell>
        <mxCell id="nx4mN9wmy4ZOvfLZEnnc-34" value="is de&lt;div&gt;temp &amp;gt; 25°C&lt;/div&gt;" style="strokeWidth=2;html=1;shape=mxgraph.flowchart.decision;whiteSpace=wrap;" vertex="1" parent="WIyWlLk6GJQsqaUBKTNV-1">
          <mxGeometry x="288" y="779" width="100" height="100" as="geometry" />
        </mxCell>
        <mxCell id="nx4mN9wmy4ZOvfLZEnnc-37" style="edgeStyle=orthogonalEdgeStyle;rounded=0;orthogonalLoop=1;jettySize=auto;html=1;exitX=0.5;exitY=1;exitDx=0;exitDy=0;entryX=0.5;entryY=0;entryDx=0;entryDy=0;entryPerimeter=0;" edge="1" parent="WIyWlLk6GJQsqaUBKTNV-1" source="nx4mN9wmy4ZOvfLZEnnc-18" target="nx4mN9wmy4ZOvfLZEnnc-34">
          <mxGeometry relative="1" as="geometry" />
        </mxCell>
        <mxCell id="nx4mN9wmy4ZOvfLZEnnc-42" value="water geven" style="rounded=1;whiteSpace=wrap;html=1;absoluteArcSize=1;arcSize=14;strokeWidth=2;" vertex="1" parent="WIyWlLk6GJQsqaUBKTNV-1">
          <mxGeometry x="708" y="1069" width="100" height="105" as="geometry" />
        </mxCell>
        <mxCell id="nx4mN9wmy4ZOvfLZEnnc-45" style="edgeStyle=orthogonalEdgeStyle;rounded=0;orthogonalLoop=1;jettySize=auto;html=1;exitX=0.5;exitY=1;exitDx=0;exitDy=0;exitPerimeter=0;entryX=0.5;entryY=0;entryDx=0;entryDy=0;fillColor=#d5e8d4;strokeColor=#82b366;" edge="1" parent="WIyWlLk6GJQsqaUBKTNV-1" source="nx4mN9wmy4ZOvfLZEnnc-26">
          <mxGeometry relative="1" as="geometry">
            <mxPoint x="138" y="924" as="targetPoint" />
            <Array as="points">
              <mxPoint x="138" y="895" />
              <mxPoint x="138" y="895" />
            </Array>
          </mxGeometry>
        </mxCell>
        <mxCell id="nx4mN9wmy4ZOvfLZEnnc-113" value="JA" style="edgeLabel;html=1;align=center;verticalAlign=middle;resizable=0;points=[];fontColor=light-dark(#82b366, #ededed);" vertex="1" connectable="0" parent="nx4mN9wmy4ZOvfLZEnnc-45">
          <mxGeometry x="-0.2082" y="-2" relative="1" as="geometry">
            <mxPoint x="2" as="offset" />
          </mxGeometry>
        </mxCell>
        <mxCell id="nx4mN9wmy4ZOvfLZEnnc-98" style="edgeStyle=orthogonalEdgeStyle;rounded=0;orthogonalLoop=1;jettySize=auto;html=1;exitX=1;exitY=0.5;exitDx=0;exitDy=0;exitPerimeter=0;strokeWidth=2;entryX=0.5;entryY=0;entryDx=0;entryDy=0;" edge="1" parent="WIyWlLk6GJQsqaUBKTNV-1" source="nx4mN9wmy4ZOvfLZEnnc-114" target="nx4mN9wmy4ZOvfLZEnnc-42">
          <mxGeometry relative="1" as="geometry">
            <mxPoint x="788" y="1045" as="targetPoint" />
          </mxGeometry>
        </mxCell>
        <mxCell id="nx4mN9wmy4ZOvfLZEnnc-48" value="Is de bodem&lt;div&gt;Droog?&lt;/div&gt;&lt;div&gt;(nat voorang)&lt;/div&gt;" style="strokeWidth=2;html=1;shape=mxgraph.flowchart.decision;whiteSpace=wrap;" vertex="1" parent="WIyWlLk6GJQsqaUBKTNV-1">
          <mxGeometry x="78" y="919" width="120" height="120" as="geometry" />
        </mxCell>
        <mxCell id="nx4mN9wmy4ZOvfLZEnnc-65" style="edgeStyle=orthogonalEdgeStyle;rounded=0;orthogonalLoop=1;jettySize=auto;html=1;exitX=0;exitY=0.5;exitDx=0;exitDy=0;entryX=1;entryY=0.5;entryDx=0;entryDy=0;entryPerimeter=0;" edge="1" parent="WIyWlLk6GJQsqaUBKTNV-1" source="nx4mN9wmy4ZOvfLZEnnc-42" target="nx4mN9wmy4ZOvfLZEnnc-2">
          <mxGeometry relative="1" as="geometry">
            <Array as="points">
              <mxPoint x="528" y="1121.5" />
            </Array>
          </mxGeometry>
        </mxCell>
        <mxCell id="nx4mN9wmy4ZOvfLZEnnc-67" value="READ&lt;div&gt;OVERRIDE&lt;/div&gt;&lt;div&gt;BUTTON&lt;/div&gt;" style="rounded=1;whiteSpace=wrap;html=1;absoluteArcSize=1;arcSize=14;strokeWidth=2;" vertex="1" parent="WIyWlLk6GJQsqaUBKTNV-1">
          <mxGeometry x="288" y="125" width="100" height="50" as="geometry" />
        </mxCell>
        <mxCell id="nx4mN9wmy4ZOvfLZEnnc-70" value="" style="edgeStyle=orthogonalEdgeStyle;rounded=0;orthogonalLoop=1;jettySize=auto;html=1;entryX=0.5;entryY=0;entryDx=0;entryDy=0;" edge="1" parent="WIyWlLk6GJQsqaUBKTNV-1" target="nx4mN9wmy4ZOvfLZEnnc-69">
          <mxGeometry relative="1" as="geometry">
            <mxPoint x="338" y="175" as="sourcePoint" />
            <mxPoint x="338" y="315" as="targetPoint" />
            <Array as="points" />
          </mxGeometry>
        </mxCell>
        <mxCell id="nx4mN9wmy4ZOvfLZEnnc-105" style="edgeStyle=orthogonalEdgeStyle;rounded=0;orthogonalLoop=1;jettySize=auto;html=1;exitX=0.5;exitY=1;exitDx=0;exitDy=0;exitPerimeter=0;entryX=0.5;entryY=0;entryDx=0;entryDy=0;fillColor=#f8cecc;strokeColor=#b85450;" edge="1" parent="WIyWlLk6GJQsqaUBKTNV-1" source="nx4mN9wmy4ZOvfLZEnnc-69" target="nx4mN9wmy4ZOvfLZEnnc-75">
          <mxGeometry relative="1" as="geometry" />
        </mxCell>
        <mxCell id="nx4mN9wmy4ZOvfLZEnnc-69" value="Button&lt;div&gt;pressed?&lt;/div&gt;" style="strokeWidth=2;html=1;shape=mxgraph.flowchart.decision;whiteSpace=wrap;" vertex="1" parent="WIyWlLk6GJQsqaUBKTNV-1">
          <mxGeometry x="288" y="195" width="100" height="100" as="geometry" />
        </mxCell>
        <mxCell id="nx4mN9wmy4ZOvfLZEnnc-80" value="" style="edgeStyle=orthogonalEdgeStyle;rounded=0;orthogonalLoop=1;jettySize=auto;html=1;entryX=0.5;entryY=0;entryDx=0;entryDy=0;" edge="1" parent="WIyWlLk6GJQsqaUBKTNV-1" target="nx4mN9wmy4ZOvfLZEnnc-75">
          <mxGeometry relative="1" as="geometry">
            <mxPoint x="338" y="365" as="sourcePoint" />
            <mxPoint x="338" y="715" as="targetPoint" />
            <Array as="points" />
          </mxGeometry>
        </mxCell>
        <mxCell id="nx4mN9wmy4ZOvfLZEnnc-81" value="NEE" style="edgeLabel;html=1;align=center;verticalAlign=middle;resizable=0;points=[];fontColor=light-dark(#b85450, #ededed);" vertex="1" connectable="0" parent="nx4mN9wmy4ZOvfLZEnnc-80">
          <mxGeometry x="-0.8274" y="3" relative="1" as="geometry">
            <mxPoint x="3" y="-48" as="offset" />
          </mxGeometry>
        </mxCell>
        <mxCell id="nx4mN9wmy4ZOvfLZEnnc-75" value="READ&lt;div&gt;SENSORDATA&lt;/div&gt;&lt;div&gt;BVS-C&lt;/div&gt;" style="rounded=1;whiteSpace=wrap;html=1;absoluteArcSize=1;arcSize=14;strokeWidth=2;" vertex="1" parent="WIyWlLk6GJQsqaUBKTNV-1">
          <mxGeometry x="288" y="345" width="100" height="50" as="geometry" />
        </mxCell>
        <mxCell id="nx4mN9wmy4ZOvfLZEnnc-82" value="" style="edgeStyle=orthogonalEdgeStyle;rounded=0;orthogonalLoop=1;jettySize=auto;html=1;entryX=0.5;entryY=0;entryDx=0;entryDy=0;" edge="1" parent="WIyWlLk6GJQsqaUBKTNV-1" source="nx4mN9wmy4ZOvfLZEnnc-75" target="nx4mN9wmy4ZOvfLZEnnc-76">
          <mxGeometry relative="1" as="geometry">
            <mxPoint x="338" y="345" as="sourcePoint" />
            <mxPoint x="338" y="715" as="targetPoint" />
            <Array as="points" />
          </mxGeometry>
        </mxCell>
        <mxCell id="nx4mN9wmy4ZOvfLZEnnc-76" value="READ&lt;div&gt;SENSORDATA&lt;/div&gt;&lt;div&gt;BVS-R&lt;/div&gt;" style="rounded=1;whiteSpace=wrap;html=1;absoluteArcSize=1;arcSize=14;strokeWidth=2;" vertex="1" parent="WIyWlLk6GJQsqaUBKTNV-1">
          <mxGeometry x="288" y="415" width="100" height="50" as="geometry" />
        </mxCell>
        <mxCell id="nx4mN9wmy4ZOvfLZEnnc-83" value="" style="edgeStyle=orthogonalEdgeStyle;rounded=0;orthogonalLoop=1;jettySize=auto;html=1;entryX=0.5;entryY=0;entryDx=0;entryDy=0;" edge="1" parent="WIyWlLk6GJQsqaUBKTNV-1" source="nx4mN9wmy4ZOvfLZEnnc-76" target="nx4mN9wmy4ZOvfLZEnnc-77">
          <mxGeometry relative="1" as="geometry">
            <mxPoint x="338" y="415" as="sourcePoint" />
            <mxPoint x="338" y="715" as="targetPoint" />
            <Array as="points" />
          </mxGeometry>
        </mxCell>
        <mxCell id="nx4mN9wmy4ZOvfLZEnnc-77" value="Bepaal status van BVS-C" style="rounded=1;whiteSpace=wrap;html=1;absoluteArcSize=1;arcSize=14;strokeWidth=2;" vertex="1" parent="WIyWlLk6GJQsqaUBKTNV-1">
          <mxGeometry x="288" y="485" width="100" height="50" as="geometry" />
        </mxCell>
        <mxCell id="nx4mN9wmy4ZOvfLZEnnc-84" value="" style="edgeStyle=orthogonalEdgeStyle;rounded=0;orthogonalLoop=1;jettySize=auto;html=1;entryX=0.5;entryY=0;entryDx=0;entryDy=0;" edge="1" parent="WIyWlLk6GJQsqaUBKTNV-1" source="nx4mN9wmy4ZOvfLZEnnc-77" target="nx4mN9wmy4ZOvfLZEnnc-78">
          <mxGeometry relative="1" as="geometry">
            <mxPoint x="338" y="485" as="sourcePoint" />
            <mxPoint x="338" y="715" as="targetPoint" />
            <Array as="points" />
          </mxGeometry>
        </mxCell>
        <mxCell id="nx4mN9wmy4ZOvfLZEnnc-78" value="Bepaal status van BVS-R" style="rounded=1;whiteSpace=wrap;html=1;absoluteArcSize=1;arcSize=14;strokeWidth=2;" vertex="1" parent="WIyWlLk6GJQsqaUBKTNV-1">
          <mxGeometry x="288" y="555" width="100" height="50" as="geometry" />
        </mxCell>
        <mxCell id="nx4mN9wmy4ZOvfLZEnnc-85" value="" style="edgeStyle=orthogonalEdgeStyle;rounded=0;orthogonalLoop=1;jettySize=auto;html=1;entryX=0.5;entryY=0;entryDx=0;entryDy=0;" edge="1" parent="WIyWlLk6GJQsqaUBKTNV-1" source="nx4mN9wmy4ZOvfLZEnnc-78" target="nx4mN9wmy4ZOvfLZEnnc-79">
          <mxGeometry relative="1" as="geometry">
            <mxPoint x="338" y="565" as="sourcePoint" />
            <mxPoint x="338" y="705" as="targetPoint" />
            <Array as="points" />
          </mxGeometry>
        </mxCell>
        <mxCell id="nx4mN9wmy4ZOvfLZEnnc-106" style="edgeStyle=orthogonalEdgeStyle;rounded=0;orthogonalLoop=1;jettySize=auto;html=1;exitX=0.5;exitY=1;exitDx=0;exitDy=0;entryX=0.5;entryY=0;entryDx=0;entryDy=0;" edge="1" parent="WIyWlLk6GJQsqaUBKTNV-1" source="nx4mN9wmy4ZOvfLZEnnc-79" target="nx4mN9wmy4ZOvfLZEnnc-18">
          <mxGeometry relative="1" as="geometry" />
        </mxCell>
        <mxCell id="nx4mN9wmy4ZOvfLZEnnc-79" value="Bepaal finale status&amp;nbsp;" style="rounded=1;whiteSpace=wrap;html=1;absoluteArcSize=1;arcSize=14;strokeWidth=2;" vertex="1" parent="WIyWlLk6GJQsqaUBKTNV-1">
          <mxGeometry x="288" y="625" width="100" height="50" as="geometry" />
        </mxCell>
        <mxCell id="nx4mN9wmy4ZOvfLZEnnc-97" style="edgeStyle=orthogonalEdgeStyle;rounded=0;orthogonalLoop=1;jettySize=auto;html=1;exitX=1;exitY=0.5;exitDx=0;exitDy=0;exitPerimeter=0;entryX=0.5;entryY=0;entryDx=0;entryDy=0;strokeWidth=2;" edge="1" parent="WIyWlLk6GJQsqaUBKTNV-1" source="nx4mN9wmy4ZOvfLZEnnc-120" target="nx4mN9wmy4ZOvfLZEnnc-42">
          <mxGeometry relative="1" as="geometry" />
        </mxCell>
        <mxCell id="nx4mN9wmy4ZOvfLZEnnc-89" value="Is de bodem&lt;div&gt;Droog?&lt;/div&gt;&lt;div&gt;(droog voorang)&lt;/div&gt;" style="strokeWidth=2;html=1;shape=mxgraph.flowchart.decision;whiteSpace=wrap;" vertex="1" parent="WIyWlLk6GJQsqaUBKTNV-1">
          <mxGeometry x="428" y="769" width="120" height="120" as="geometry" />
        </mxCell>
        <mxCell id="nx4mN9wmy4ZOvfLZEnnc-92" style="edgeStyle=orthogonalEdgeStyle;rounded=0;orthogonalLoop=1;jettySize=auto;html=1;exitX=1;exitY=0.5;exitDx=0;exitDy=0;exitPerimeter=0;entryX=0;entryY=0.5;entryDx=0;entryDy=0;entryPerimeter=0;fontColor=light-dark(#82b366, #ededed);fillColor=#d5e8d4;strokeColor=#82b366;" edge="1" parent="WIyWlLk6GJQsqaUBKTNV-1" source="nx4mN9wmy4ZOvfLZEnnc-34" target="nx4mN9wmy4ZOvfLZEnnc-89">
          <mxGeometry relative="1" as="geometry" />
        </mxCell>
        <mxCell id="nx4mN9wmy4ZOvfLZEnnc-93" value="JA" style="edgeLabel;html=1;align=center;verticalAlign=middle;resizable=0;points=[];fontColor=light-dark(#82b366, #ededed);" vertex="1" connectable="0" parent="nx4mN9wmy4ZOvfLZEnnc-92">
          <mxGeometry x="-0.0715" y="-3" relative="1" as="geometry">
            <mxPoint y="-3" as="offset" />
          </mxGeometry>
        </mxCell>
        <mxCell id="nx4mN9wmy4ZOvfLZEnnc-108" style="edgeStyle=orthogonalEdgeStyle;rounded=0;orthogonalLoop=1;jettySize=auto;html=1;exitX=0;exitY=0.5;exitDx=0;exitDy=0;exitPerimeter=0;entryX=0;entryY=0.5;entryDx=0;entryDy=0;entryPerimeter=0;fillColor=#f8cecc;strokeColor=#b85450;" edge="1" parent="WIyWlLk6GJQsqaUBKTNV-1" source="nx4mN9wmy4ZOvfLZEnnc-26" target="nx4mN9wmy4ZOvfLZEnnc-2">
          <mxGeometry relative="1" as="geometry">
            <Array as="points">
              <mxPoint x="18" y="829" />
              <mxPoint x="18" y="1121" />
            </Array>
          </mxGeometry>
        </mxCell>
        <mxCell id="nx4mN9wmy4ZOvfLZEnnc-111" value="NEE" style="edgeLabel;html=1;align=center;verticalAlign=middle;resizable=0;points=[];fontColor=light-dark(#b85450, #ededed);" vertex="1" connectable="0" parent="nx4mN9wmy4ZOvfLZEnnc-108">
          <mxGeometry x="-0.8654" y="-2" relative="1" as="geometry">
            <mxPoint as="offset" />
          </mxGeometry>
        </mxCell>
        <mxCell id="nx4mN9wmy4ZOvfLZEnnc-109" style="edgeStyle=orthogonalEdgeStyle;rounded=0;orthogonalLoop=1;jettySize=auto;html=1;exitX=0;exitY=0.5;exitDx=0;exitDy=0;exitPerimeter=0;entryX=0;entryY=0.5;entryDx=0;entryDy=0;entryPerimeter=0;fillColor=#f8cecc;strokeColor=#b85450;" edge="1" parent="WIyWlLk6GJQsqaUBKTNV-1" source="nx4mN9wmy4ZOvfLZEnnc-48" target="nx4mN9wmy4ZOvfLZEnnc-2">
          <mxGeometry relative="1" as="geometry">
            <Array as="points">
              <mxPoint x="18" y="979" />
              <mxPoint x="18" y="1121" />
            </Array>
          </mxGeometry>
        </mxCell>
        <mxCell id="nx4mN9wmy4ZOvfLZEnnc-110" value="NEE" style="edgeLabel;html=1;align=center;verticalAlign=middle;resizable=0;points=[];fontColor=light-dark(#b85450, #ededed);" vertex="1" connectable="0" parent="nx4mN9wmy4ZOvfLZEnnc-109">
          <mxGeometry x="-0.8438" relative="1" as="geometry">
            <mxPoint as="offset" />
          </mxGeometry>
        </mxCell>
        <mxCell id="nx4mN9wmy4ZOvfLZEnnc-115" value="" style="edgeStyle=orthogonalEdgeStyle;rounded=0;orthogonalLoop=1;jettySize=auto;html=1;exitX=1;exitY=0.5;exitDx=0;exitDy=0;exitPerimeter=0;fillColor=#d5e8d4;strokeColor=#82b366;strokeWidth=2;entryX=0;entryY=0.5;entryDx=0;entryDy=0;" edge="1" parent="WIyWlLk6GJQsqaUBKTNV-1" source="nx4mN9wmy4ZOvfLZEnnc-48" target="nx4mN9wmy4ZOvfLZEnnc-114">
          <mxGeometry relative="1" as="geometry">
            <mxPoint x="418" y="929" as="targetPoint" />
            <mxPoint x="198" y="979" as="sourcePoint" />
          </mxGeometry>
        </mxCell>
        <mxCell id="nx4mN9wmy4ZOvfLZEnnc-116" value="JA" style="edgeLabel;html=1;align=center;verticalAlign=middle;resizable=0;points=[];fontColor=light-dark(#82b366, #ededed);" vertex="1" connectable="0" parent="nx4mN9wmy4ZOvfLZEnnc-115">
          <mxGeometry x="-0.6874" y="4" relative="1" as="geometry">
            <mxPoint x="76" y="4" as="offset" />
          </mxGeometry>
        </mxCell>
        <mxCell id="nx4mN9wmy4ZOvfLZEnnc-114" value="DUURTIJD WATER GEVEN&lt;div&gt;= 1 sec&lt;/div&gt;" style="rounded=1;whiteSpace=wrap;html=1;absoluteArcSize=1;arcSize=14;strokeWidth=2;" vertex="1" parent="WIyWlLk6GJQsqaUBKTNV-1">
          <mxGeometry x="608" y="929" width="100" height="100" as="geometry" />
        </mxCell>
        <mxCell id="nx4mN9wmy4ZOvfLZEnnc-121" value="" style="edgeStyle=orthogonalEdgeStyle;rounded=0;orthogonalLoop=1;jettySize=auto;html=1;exitX=1;exitY=0.5;exitDx=0;exitDy=0;exitPerimeter=0;entryX=0;entryY=0.5;entryDx=0;entryDy=0;fillColor=#d5e8d4;strokeColor=#82b366;strokeWidth=2;" edge="1" parent="WIyWlLk6GJQsqaUBKTNV-1" source="nx4mN9wmy4ZOvfLZEnnc-89" target="nx4mN9wmy4ZOvfLZEnnc-120">
          <mxGeometry relative="1" as="geometry">
            <mxPoint x="548" y="829" as="sourcePoint" />
            <mxPoint x="758" y="1069" as="targetPoint" />
          </mxGeometry>
        </mxCell>
        <mxCell id="nx4mN9wmy4ZOvfLZEnnc-122" value="JA" style="edgeLabel;html=1;align=center;verticalAlign=middle;resizable=0;points=[];fontColor=light-dark(#82b366, #ededed);" vertex="1" connectable="0" parent="nx4mN9wmy4ZOvfLZEnnc-121">
          <mxGeometry x="-0.863" y="2" relative="1" as="geometry">
            <mxPoint x="16" y="2" as="offset" />
          </mxGeometry>
        </mxCell>
        <mxCell id="nx4mN9wmy4ZOvfLZEnnc-120" value="DUURTIJD WATER GEVEN&lt;div&gt;= 2 sec&lt;/div&gt;" style="rounded=1;whiteSpace=wrap;html=1;absoluteArcSize=1;arcSize=14;strokeWidth=2;" vertex="1" parent="WIyWlLk6GJQsqaUBKTNV-1">
          <mxGeometry x="608" y="779" width="100" height="100" as="geometry" />
        </mxCell>
        <mxCell id="nx4mN9wmy4ZOvfLZEnnc-95" style="edgeStyle=orthogonalEdgeStyle;rounded=0;orthogonalLoop=1;jettySize=auto;html=1;exitX=1;exitY=0.5;exitDx=0;exitDy=0;exitPerimeter=0;entryX=0.5;entryY=0;entryDx=0;entryDy=0;fillColor=#d5e8d4;strokeColor=#82b366;strokeWidth=2;" edge="1" parent="WIyWlLk6GJQsqaUBKTNV-1" source="nx4mN9wmy4ZOvfLZEnnc-69" target="nx4mN9wmy4ZOvfLZEnnc-42">
          <mxGeometry relative="1" as="geometry" />
        </mxCell>
        <mxCell id="nx4mN9wmy4ZOvfLZEnnc-96" value="JA" style="edgeLabel;html=1;align=center;verticalAlign=middle;resizable=0;points=[];fontColor=light-dark(#82b366, #ededed);" vertex="1" connectable="0" parent="nx4mN9wmy4ZOvfLZEnnc-95">
          <mxGeometry x="-0.889" y="4" relative="1" as="geometry">
            <mxPoint x="94" as="offset" />
          </mxGeometry>
        </mxCell>
        <mxCell id="nx4mN9wmy4ZOvfLZEnnc-104" value="JA" style="edgeLabel;html=1;align=center;verticalAlign=middle;resizable=0;points=[];fontColor=light-dark(#82b366, #ededed);" vertex="1" connectable="0" parent="nx4mN9wmy4ZOvfLZEnnc-95">
          <mxGeometry x="-0.1037" relative="1" as="geometry">
            <mxPoint as="offset" />
          </mxGeometry>
        </mxCell>
      </root>
    </mxGraphModel>
  </diagram>
</mxfile>
